<mxfile host="app.diagrams.net" agent="Mozilla/5.0 (Windows NT 10.0; Win64; x64) AppleWebKit/537.36 (KHTML, like Gecko) Chrome/131.0.0.0 Safari/537.36" version="25.0.3" pages="2">
  <diagram name="basic-flowchart" id="gOvr1ZV6TugEQqsZO7LM">
    <mxGraphModel dx="2284" dy="1878" grid="1" gridSize="10" guides="1" tooltips="1" connect="1" arrows="1" fold="1" page="1" pageScale="1" pageWidth="850" pageHeight="1100" math="0" shadow="0">
      <root>
        <mxCell id="0" />
        <mxCell id="1" parent="0" />
        <mxCell id="WkjePf67e-vHWpQ8WnCZ-21" style="edgeStyle=orthogonalEdgeStyle;rounded=0;orthogonalLoop=1;jettySize=auto;html=1;exitX=0.5;exitY=1;exitDx=0;exitDy=0;entryX=0.5;entryY=0;entryDx=0;entryDy=0;entryPerimeter=0;" edge="1" parent="1" source="WkjePf67e-vHWpQ8WnCZ-13" target="WkjePf67e-vHWpQ8WnCZ-14">
          <mxGeometry relative="1" as="geometry">
            <mxPoint x="-415" y="150" as="targetPoint" />
          </mxGeometry>
        </mxCell>
        <mxCell id="WkjePf67e-vHWpQ8WnCZ-13" value="Packet Sniffer" style="label;whiteSpace=wrap;html=1;image=img/clipart/Gear_128x128.png" vertex="1" parent="1">
          <mxGeometry x="-490" y="40" width="150" height="60" as="geometry" />
        </mxCell>
        <mxCell id="WkjePf67e-vHWpQ8WnCZ-15" style="edgeStyle=orthogonalEdgeStyle;rounded=0;orthogonalLoop=1;jettySize=auto;html=1;" edge="1" parent="1" source="WkjePf67e-vHWpQ8WnCZ-14">
          <mxGeometry relative="1" as="geometry">
            <mxPoint x="-415" y="360" as="targetPoint" />
          </mxGeometry>
        </mxCell>
        <mxCell id="WkjePf67e-vHWpQ8WnCZ-17" value="YES" style="edgeLabel;html=1;align=center;verticalAlign=middle;resizable=0;points=[];" vertex="1" connectable="0" parent="WkjePf67e-vHWpQ8WnCZ-15">
          <mxGeometry x="-0.1045" y="2" relative="1" as="geometry">
            <mxPoint x="-2" y="-15" as="offset" />
          </mxGeometry>
        </mxCell>
        <mxCell id="WkjePf67e-vHWpQ8WnCZ-18" style="edgeStyle=orthogonalEdgeStyle;rounded=0;orthogonalLoop=1;jettySize=auto;html=1;exitX=1;exitY=0.5;exitDx=0;exitDy=0;exitPerimeter=0;entryX=1;entryY=0.5;entryDx=0;entryDy=0;" edge="1" parent="1" source="WkjePf67e-vHWpQ8WnCZ-14" target="WkjePf67e-vHWpQ8WnCZ-13">
          <mxGeometry relative="1" as="geometry">
            <mxPoint x="-330" y="60" as="targetPoint" />
            <Array as="points">
              <mxPoint x="-297" y="210" />
              <mxPoint x="-297" y="70" />
            </Array>
          </mxGeometry>
        </mxCell>
        <mxCell id="WkjePf67e-vHWpQ8WnCZ-20" value="NO / YES" style="edgeLabel;html=1;align=center;verticalAlign=middle;resizable=0;points=[];" vertex="1" connectable="0" parent="WkjePf67e-vHWpQ8WnCZ-18">
          <mxGeometry x="0.0074" y="-1" relative="1" as="geometry">
            <mxPoint y="1" as="offset" />
          </mxGeometry>
        </mxCell>
        <mxCell id="WkjePf67e-vHWpQ8WnCZ-14" value="Is it a domain/IP of interest?" style="strokeWidth=2;html=1;shape=mxgraph.flowchart.decision;whiteSpace=wrap;" vertex="1" parent="1">
          <mxGeometry x="-512.5" y="160" width="195" height="100" as="geometry" />
        </mxCell>
        <mxCell id="WkjePf67e-vHWpQ8WnCZ-16" value="KeyLogger" style="label;whiteSpace=wrap;html=1;image=img/clipart/Gear_128x128.png" vertex="1" parent="1">
          <mxGeometry x="-490" y="320" width="150" height="60" as="geometry" />
        </mxCell>
        <mxCell id="WkjePf67e-vHWpQ8WnCZ-22" style="edgeStyle=orthogonalEdgeStyle;rounded=0;orthogonalLoop=1;jettySize=auto;html=1;exitX=0.5;exitY=1;exitDx=0;exitDy=0;exitPerimeter=0;entryX=0.5;entryY=0;entryDx=0;entryDy=0;" edge="1" parent="1" source="WkjePf67e-vHWpQ8WnCZ-19" target="WkjePf67e-vHWpQ8WnCZ-13">
          <mxGeometry relative="1" as="geometry" />
        </mxCell>
        <mxCell id="WkjePf67e-vHWpQ8WnCZ-19" value="Start" style="strokeWidth=2;html=1;shape=mxgraph.flowchart.start_1;whiteSpace=wrap;" vertex="1" parent="1">
          <mxGeometry x="-465" y="-70" width="100" height="60" as="geometry" />
        </mxCell>
        <mxCell id="WkjePf67e-vHWpQ8WnCZ-23" value="MODEL CHECK COMPLIANCE/SECURTIY" style="strokeWidth=2;html=1;shape=mxgraph.flowchart.multi-document;whiteSpace=wrap;" vertex="1" parent="1">
          <mxGeometry x="-570" y="430" width="324.5" height="90" as="geometry" />
        </mxCell>
        <mxCell id="WkjePf67e-vHWpQ8WnCZ-24" style="edgeStyle=orthogonalEdgeStyle;rounded=0;orthogonalLoop=1;jettySize=auto;html=1;entryX=0.475;entryY=0;entryDx=0;entryDy=0;entryPerimeter=0;" edge="1" parent="1" source="WkjePf67e-vHWpQ8WnCZ-16" target="WkjePf67e-vHWpQ8WnCZ-23">
          <mxGeometry relative="1" as="geometry" />
        </mxCell>
        <mxCell id="WkjePf67e-vHWpQ8WnCZ-30" style="edgeStyle=orthogonalEdgeStyle;rounded=0;orthogonalLoop=1;jettySize=auto;html=1;exitX=0.5;exitY=1;exitDx=0;exitDy=0;exitPerimeter=0;entryX=0.5;entryY=0;entryDx=0;entryDy=0;" edge="1" parent="1" source="WkjePf67e-vHWpQ8WnCZ-25" target="WkjePf67e-vHWpQ8WnCZ-28">
          <mxGeometry relative="1" as="geometry" />
        </mxCell>
        <mxCell id="WkjePf67e-vHWpQ8WnCZ-32" value="YES" style="edgeLabel;html=1;align=center;verticalAlign=middle;resizable=0;points=[];" vertex="1" connectable="0" parent="WkjePf67e-vHWpQ8WnCZ-30">
          <mxGeometry x="-0.0811" y="1" relative="1" as="geometry">
            <mxPoint y="1" as="offset" />
          </mxGeometry>
        </mxCell>
        <mxCell id="WkjePf67e-vHWpQ8WnCZ-31" style="edgeStyle=orthogonalEdgeStyle;rounded=0;orthogonalLoop=1;jettySize=auto;html=1;exitX=1;exitY=0.5;exitDx=0;exitDy=0;exitPerimeter=0;entryX=1;entryY=0.5;entryDx=0;entryDy=0;" edge="1" parent="1" source="WkjePf67e-vHWpQ8WnCZ-25" target="WkjePf67e-vHWpQ8WnCZ-16">
          <mxGeometry relative="1" as="geometry">
            <mxPoint x="-200" y="350" as="targetPoint" />
            <Array as="points">
              <mxPoint x="-200" y="597" />
              <mxPoint x="-200" y="350" />
            </Array>
          </mxGeometry>
        </mxCell>
        <mxCell id="WkjePf67e-vHWpQ8WnCZ-33" value="NO / YES" style="edgeLabel;html=1;align=center;verticalAlign=middle;resizable=0;points=[];" vertex="1" connectable="0" parent="WkjePf67e-vHWpQ8WnCZ-31">
          <mxGeometry x="-0.0032" y="2" relative="1" as="geometry">
            <mxPoint as="offset" />
          </mxGeometry>
        </mxCell>
        <mxCell id="WkjePf67e-vHWpQ8WnCZ-25" value="Security Breach?" style="strokeWidth=2;html=1;shape=mxgraph.flowchart.decision;whiteSpace=wrap;" vertex="1" parent="1">
          <mxGeometry x="-479" y="550" width="128" height="94.5" as="geometry" />
        </mxCell>
        <mxCell id="WkjePf67e-vHWpQ8WnCZ-26" style="edgeStyle=orthogonalEdgeStyle;rounded=0;orthogonalLoop=1;jettySize=auto;html=1;exitX=0.478;exitY=0.9;exitDx=0;exitDy=0;exitPerimeter=0;entryX=0.5;entryY=0;entryDx=0;entryDy=0;entryPerimeter=0;" edge="1" parent="1" source="WkjePf67e-vHWpQ8WnCZ-23" target="WkjePf67e-vHWpQ8WnCZ-25">
          <mxGeometry relative="1" as="geometry" />
        </mxCell>
        <mxCell id="WkjePf67e-vHWpQ8WnCZ-27" value="End" style="strokeWidth=2;html=1;shape=mxgraph.flowchart.terminator;whiteSpace=wrap;" vertex="1" parent="1">
          <mxGeometry x="-465" y="850" width="100" height="60" as="geometry" />
        </mxCell>
        <mxCell id="WkjePf67e-vHWpQ8WnCZ-28" value="Notify Company and Leads.&lt;div&gt;&lt;br&gt;&lt;/div&gt;&lt;div&gt;Add info in dashboard.&lt;/div&gt;" style="rounded=1;whiteSpace=wrap;html=1;absoluteArcSize=1;arcSize=14;strokeWidth=2;" vertex="1" parent="1">
          <mxGeometry x="-465" y="700" width="100" height="100" as="geometry" />
        </mxCell>
        <mxCell id="WkjePf67e-vHWpQ8WnCZ-29" style="edgeStyle=orthogonalEdgeStyle;rounded=0;orthogonalLoop=1;jettySize=auto;html=1;exitX=0.5;exitY=1;exitDx=0;exitDy=0;entryX=0.5;entryY=0;entryDx=0;entryDy=0;entryPerimeter=0;" edge="1" parent="1" source="WkjePf67e-vHWpQ8WnCZ-28" target="WkjePf67e-vHWpQ8WnCZ-27">
          <mxGeometry relative="1" as="geometry" />
        </mxCell>
      </root>
    </mxGraphModel>
  </diagram>
  <diagram id="V-udDIweeGcm_AQSfN32" name="tool-stage">
    <mxGraphModel dx="1434" dy="778" grid="1" gridSize="10" guides="1" tooltips="1" connect="1" arrows="1" fold="1" page="1" pageScale="1" pageWidth="850" pageHeight="1100" math="0" shadow="0">
      <root>
        <mxCell id="0" />
        <mxCell id="1" parent="0" />
        <mxCell id="5HDYDZA653FDStpPhz1p-1" value="GenAI Data Securtiy Tool" style="swimlane;childLayout=stackLayout;resizeParent=1;resizeParentMax=0;startSize=20;html=1;" vertex="1" parent="1">
          <mxGeometry x="90" y="90" width="910" height="150" as="geometry" />
        </mxCell>
        <mxCell id="5HDYDZA653FDStpPhz1p-2" value="Stage 1" style="swimlane;startSize=20;html=1;" vertex="1" parent="5HDYDZA653FDStpPhz1p-1">
          <mxGeometry y="20" width="210" height="130" as="geometry" />
        </mxCell>
        <mxCell id="UsOEyqDgYqWzFUIQclIF-1" value="Packet Sniffer" style="label;whiteSpace=wrap;html=1;image=img/clipart/Gear_128x128.png" vertex="1" parent="5HDYDZA653FDStpPhz1p-2">
          <mxGeometry x="29.999999999999545" y="40" width="150" height="60" as="geometry" />
        </mxCell>
        <mxCell id="5HDYDZA653FDStpPhz1p-3" value="Stage 2" style="swimlane;startSize=20;html=1;" vertex="1" parent="5HDYDZA653FDStpPhz1p-1">
          <mxGeometry x="210" y="20" width="210" height="130" as="geometry" />
        </mxCell>
        <mxCell id="4VzG1EJcs8s1dkL-PvzF-1" value="KeyLogger" style="label;whiteSpace=wrap;html=1;image=img/clipart/Gear_128x128.png" vertex="1" parent="5HDYDZA653FDStpPhz1p-3">
          <mxGeometry x="29.999999999999545" y="40" width="150" height="60" as="geometry" />
        </mxCell>
        <mxCell id="5HDYDZA653FDStpPhz1p-4" value="Stage 3" style="swimlane;startSize=20;html=1;" vertex="1" parent="5HDYDZA653FDStpPhz1p-1">
          <mxGeometry x="420" y="20" width="250" height="130" as="geometry">
            <mxRectangle x="420" y="20" width="130" height="330" as="alternateBounds" />
          </mxGeometry>
        </mxCell>
        <mxCell id="CJqDh_b1Yme0l2tdJD96-1" value="MODEL CHECK&amp;nbsp;&lt;div&gt;COMPLIANCE/SECURIT&lt;span style=&quot;background-color: initial;&quot;&gt;Y&lt;/span&gt;&lt;/div&gt;" style="strokeWidth=2;html=1;shape=mxgraph.flowchart.multi-document;whiteSpace=wrap;" vertex="1" parent="5HDYDZA653FDStpPhz1p-4">
          <mxGeometry x="30" y="40" width="195" height="70" as="geometry" />
        </mxCell>
        <mxCell id="CJqDh_b1Yme0l2tdJD96-43" value="Stage 4" style="swimlane;startSize=20;html=1;" vertex="1" parent="5HDYDZA653FDStpPhz1p-1">
          <mxGeometry x="670" y="20" width="240" height="130" as="geometry">
            <mxRectangle x="420" y="20" width="130" height="330" as="alternateBounds" />
          </mxGeometry>
        </mxCell>
        <mxCell id="CJqDh_b1Yme0l2tdJD96-45" value="Notify the Supervisor and Add Information to the Dashboard" style="rounded=1;whiteSpace=wrap;html=1;absoluteArcSize=1;arcSize=14;strokeWidth=2;" vertex="1" parent="CJqDh_b1Yme0l2tdJD96-43">
          <mxGeometry x="20" y="40" width="200" height="60" as="geometry" />
        </mxCell>
      </root>
    </mxGraphModel>
  </diagram>
</mxfile>
